<?xml version="1.0" standalone="no"?>
<!DOCTYPE svg PUBLIC "-//W3C//DTD SVG 20010904//EN"
 "http://www.w3.org/TR/2001/REC-SVG-20010904/DTD/svg10.dtd">
<svg version="1.0" xmlns="http://www.w3.org/2000/svg"
 width="504.000000pt" height="504.000000pt" viewBox="0 0 504.000000 504.000000"
 preserveAspectRatio="xMidYMid meet">
<metadata>
Created by potrace 1.14, written by Peter Selinger 2001-2017
</metadata>
<g transform="translate(0.000000,504.000000) scale(0.100000,-0.100000)"
fill="#000000" stroke="none">
<path d="M2476 3599 c3 -5 -7 -9 -23 -10 -70 -2 -178 -8 -180 -9 -5 -4 -22 -7
-41 -9 -10 0 -27 -8 -38 -16 -19 -15 -19 -15 1 -27 51 -32 100 -38 302 -42 40
0 73 -4 73 -8 0 -4 6 -5 14 -2 30 12 147 -20 266 -73 140 -61 134 -58 126 -71
-4 -6 -19 -6 -43 0 -21 5 -49 12 -63 15 -14 3 -27 9 -30 12 -15 18 -141 48
-191 45 -75 -4 -143 -18 -164 -35 -5 -4 -12 -7 -15 -6 -10 3 -137 -48 -213
-85 -43 -21 -79 -38 -82 -38 -5 0 -161 -96 -177 -109 -7 -6 -40 -32 -73 -58
-85 -66 -149 -128 -214 -204 -83 -97 -95 -114 -92 -118 1 -2 -1 -7 -6 -10 -12
-8 -76 -104 -133 -199 -53 -90 -118 -159 -185 -198 -102 -59 -114 -98 -41
-137 22 -11 44 -21 48 -22 3 0 19 -11 35 -25 15 -13 49 -39 75 -56 43 -29 53
-31 138 -33 109 -2 135 -13 161 -63 11 -22 26 -41 34 -44 7 -3 37 6 67 20 120
57 194 68 298 45 55 -12 74 -15 170 -24 90 -9 125 -9 210 -1 147 14 210 35
414 137 118 60 119 60 134 38 13 -19 12 -23 -15 -47 -16 -15 -46 -38 -66 -52
-55 -38 -61 -54 -54 -145 6 -88 -26 -179 -119 -335 -59 -100 -84 -162 -89
-224 -4 -55 11 -71 57 -62 42 8 88 29 88 38 0 5 6 8 13 8 19 0 222 165 278
225 99 107 167 199 234 322 69 125 119 233 108 233 -3 0 0 6 6 13 6 8 12 27
14 43 2 17 7 36 11 43 5 7 10 65 12 128 3 103 1 118 -21 166 -13 29 -30 59
-37 67 -21 25 -106 78 -154 96 -24 9 -44 19 -44 23 -7 89 -3 291 5 291 5 0 11
-21 12 -48 2 -60 13 -163 18 -179 9 -26 34 -12 54 30 29 60 19 52 327 262 69
47 133 102 152 132 25 37 30 61 38 168 7 95 0 106 -86 127 -128 32 -242 4
-339 -82 -9 -8 -38 -43 -64 -77 -46 -61 -100 -103 -130 -103 -12 0 -7 -16 23
-67 21 -38 41 -82 43 -100 3 -17 8 -36 11 -42 15 -24 32 -201 19 -201 -5 0
-10 17 -11 38 -3 47 -10 87 -24 137 -5 22 -12 47 -13 55 -2 8 -4 17 -5 20 -1
3 -2 8 -1 13 0 4 -4 7 -9 7 -6 0 -10 5 -10 12 0 6 -9 30 -20 53 -15 31 -32 47
-70 65 -27 14 -50 29 -50 33 0 5 -3 6 -8 4 -11 -8 -65 40 -58 51 4 7 22 5 53
-4 25 -8 55 -14 65 -14 18 0 18 2 -2 40 -11 21 -47 68 -81 104 -76 82 -172
131 -294 152 -61 10 -335 12 -329 3z m182 -11 c17 -1 32 -5 32 -9 0 -4 10 -7
23 -7 26 0 37 -3 115 -30 71 -26 98 -38 110 -49 6 -6 21 -15 32 -18 11 -3 20
-11 20 -16 0 -5 5 -9 10 -9 16 0 79 -43 85 -58 3 -7 -25 3 -63 23 -122 67
-191 101 -224 110 -5 2 -9 3 -10 5 -2 1 -10 3 -18 5 -112 24 -171 35 -223 41
-72 8 -52 21 26 16 28 -2 67 -4 85 -4z m1157 -185 c21 -20 14 -80 -13 -131
-12 -21 -87 -60 -104 -54 -5 1 -8 -2 -8 -7 0 -5 -10 -11 -21 -14 -19 -5 -17
-1 10 27 35 36 44 98 15 114 -14 8 -13 12 3 45 16 33 22 37 60 37 26 0 48 -6
58 -17z m-1075 -43 c3 -1 8 -2 13 -1 4 0 7 -3 7 -9 0 -5 6 -7 13 -4 8 3 35 -4
60 -15 26 -11 49 -20 52 -21 17 0 55 -13 55 -19 0 -3 -15 -16 -33 -28 -23 -15
-55 -23 -117 -28 -47 -4 -103 -9 -125 -11 -128 -15 -154 -15 -192 -5 -23 6
-49 18 -56 26 -8 8 -17 11 -21 8 -3 -4 -6 1 -6 9 0 16 94 68 121 68 8 0 20 5
26 11 6 6 36 12 67 13 31 0 56 3 56 6 0 5 69 5 80 0z m730 -67 c-18 -38 -17
-103 1 -103 5 0 9 -4 9 -10 0 -23 -29 4 -32 30 l-3 28 -30 -25 c-16 -14 -24
-22 -16 -18 10 6 12 4 7 -4 -4 -6 -2 -19 5 -27 21 -26 3 -25 -27 1 l-29 26 30
24 c17 14 34 25 38 25 5 0 5 5 2 10 -3 6 -2 10 4 10 5 0 13 9 16 20 6 18 31
50 40 50 2 0 -5 -17 -15 -37z m-425 -33 c4 -6 11 -8 16 -5 5 4 9 2 9 -2 0 -5
16 -15 35 -22 61 -22 70 -43 67 -159 l-3 -102 -28 0 c-15 0 -31 3 -35 7 -7 8
-12 9 -53 11 -25 2 -89 82 -130 164 l-26 52 38 33 c39 33 96 45 110 23z m-636
-28 c18 -10 33 -21 32 -26 0 -5 -208 -136 -217 -136 -1 0 -23 -19 -101 -86
l-36 -30 -58 19 c-33 10 -59 23 -59 28 0 6 -4 7 -10 4 -5 -3 -10 1 -10 9 0 14
49 55 136 114 41 28 160 88 213 107 50 19 71 18 110 -3z m465 -51 c9 -8 16
-19 16 -26 0 -8 3 -15 8 -17 17 -8 59 -114 52 -133 -20 -52 -151 -169 -202
-179 -7 -2 -20 -5 -28 -8 -20 -8 -164 -52 -170 -53 -15 -2 -93 -48 -133 -79
-25 -19 -48 -32 -51 -29 -3 4 -6 1 -6 -5 0 -23 -41 -23 -90 2 -27 14 -50 23
-50 20 0 -3 -6 1 -13 8 -17 18 -49 68 -43 68 3 0 -3 21 -14 46 -11 25 -21 59
-22 75 -1 17 -5 32 -9 35 -13 8 3 43 23 50 11 3 17 8 14 11 -6 6 89 73 104 73
5 0 10 4 10 8 0 5 17 17 38 29 20 11 51 28 67 37 29 16 72 34 105 44 36 10
279 38 327 37 28 -1 58 -7 67 -14z m386 -121 c0 -15 6 -31 13 -33 7 -3 5 -6
-5 -6 -10 -1 -18 5 -19 12 -1 6 -2 24 -3 39 -2 15 1 25 6 22 4 -3 8 -18 8 -34z
m-1342 -108 c-24 -28 -48 -48 -60 -51 -23 -6 -188 -197 -188 -218 0 -7 -3 -13
-8 -13 -4 0 -18 -21 -32 -47 -13 -27 -27 -50 -30 -53 -3 -3 -13 -21 -23 -40
-25 -49 -54 -86 -62 -78 -12 12 83 205 122 246 6 6 15 21 18 32 4 11 11 18 16
15 5 -4 9 -1 9 4 0 6 12 26 28 43 50 59 172 174 172 163 0 -3 9 4 20 15 30 30
46 13 18 -18z m1132 11 c8 -3 24 -7 35 -9 11 -2 37 -9 58 -15 l37 -12 -5 -55
c-3 -31 -8 -67 -12 -81 -7 -33 -55 -154 -62 -161 -3 -3 -14 -21 -24 -41 -20
-39 -68 -99 -81 -99 -4 0 -13 6 -20 13 -16 17 -106 167 -106 178 0 5 -12 32
-26 60 l-27 50 24 26 c22 25 98 98 140 134 19 17 44 21 69 12z m-973 -26 c13
-6 24 -22 27 -41 3 -17 9 -42 12 -56 17 -72 20 -98 15 -113 -3 -9 -35 -47 -71
-85 -36 -37 -83 -94 -105 -125 -62 -89 -78 -105 -110 -111 -16 -2 -41 -8 -55
-11 -29 -7 -135 -7 -167 -1 -51 11 -81 44 -54 60 5 3 37 61 71 128 35 68 68
126 74 130 6 4 8 8 4 8 -11 0 27 45 97 115 67 66 115 108 115 99 0 -3 8 0 18
6 20 12 98 10 129 -3z m738 -177 c-3 -4 2 -11 11 -14 8 -3 12 -10 9 -16 -3 -5
-1 -10 4 -10 6 0 10 -3 10 -7 -1 -5 0 -11 1 -15 1 -5 3 -11 5 -15 8 -31 33
-72 39 -66 4 4 4 0 0 -10 -3 -9 -2 -17 3 -17 5 0 9 -10 10 -22 1 -11 6 -24 10
-27 4 -3 18 -25 30 -48 l21 -43 -31 -30 c-18 -17 -70 -57 -117 -88 -47 -31
-88 -61 -92 -67 -4 -5 -8 -6 -8 -1 0 5 -8 2 -17 -6 -38 -32 -203 -88 -257 -88
-17 0 -37 4 -44 9 -15 9 -33 77 -24 86 4 3 7 27 8 53 1 26 5 81 9 122 4 41 9
91 10 111 7 83 57 132 197 193 20 9 43 16 52 16 9 0 16 5 16 11 0 5 3 8 8 6 4
-3 30 1 57 8 43 11 52 11 67 -2 10 -9 15 -19 13 -23z m371 -92 c-12 -40 -17
-50 -22 -46 -5 6 13 58 20 58 3 0 4 -6 2 -12z m-956 -11 c8 0 21 -6 28 -14 7
-7 20 -13 28 -13 8 0 14 -4 14 -10 0 -5 6 -10 14 -10 20 0 37 -24 43 -62 6
-39 6 -47 0 -201 -4 -107 -6 -119 -27 -137 -28 -24 -87 -41 -137 -39 -52 1
-133 21 -133 31 0 5 -4 7 -9 4 -16 -10 -61 13 -70 36 -12 29 -18 51 -19 62 0
5 -6 13 -14 17 -9 6 -9 9 -1 9 9 0 10 7 4 22 -9 26 7 98 22 98 6 0 8 3 4 6 -5
6 32 68 68 112 20 25 77 77 98 89 12 7 33 10 47 7 14 -4 32 -7 40 -7z m915
-98 c-13 -28 -33 -63 -46 -78 -95 -111 -114 -129 -234 -216 -46 -33 -199 -114
-217 -115 -9 0 -23 -6 -30 -12 -7 -7 -20 -15 -28 -17 -30 -7 -36 -8 -80 -15
-64 -10 -200 -13 -200 -4 0 5 24 8 53 9 97 1 199 15 227 30 17 10 88 38 95 38
3 0 15 10 27 21 12 11 28 20 35 20 7 0 13 5 13 10 0 6 3 9 8 8 8 -3 108 62
139 91 12 12 26 21 30 21 5 0 15 9 23 20 8 11 20 20 27 20 7 0 13 3 13 8 0 4
23 31 50 60 28 29 50 57 50 62 0 6 4 10 8 10 5 0 17 18 27 40 10 22 22 40 26
40 4 0 -3 -23 -16 -51z m224 33 c43 -20 52 -29 69 -65 13 -30 7 -77 -11 -77
-6 0 -7 -3 -4 -7 4 -3 3 -11 -2 -17 -21 -26 -33 -98 -20 -127 6 -16 15 -29 20
-29 5 0 9 -12 9 -28 0 -18 -28 -68 -80 -145 -90 -132 -115 -161 -133 -151 -7
4 -9 4 -5 -1 4 -4 0 -21 -8 -37 -8 -16 -12 -33 -9 -38 3 -6 1 -10 -4 -10 -6 0
-11 -8 -11 -17 0 -10 -13 -43 -29 -73 -16 -30 -32 -66 -36 -79 -13 -43 -49
-79 -165 -165 -41 -30 -79 -59 -85 -63 -29 -25 -75 -53 -75 -48 0 4 27 33 60
65 33 32 60 66 60 77 0 10 4 23 9 28 12 14 23 77 12 71 -17 -11 -21 39 -4 54
14 13 15 13 10 -2 -4 -12 -1 -18 8 -18 17 0 14 -46 -9 -107 -8 -24 -13 -43
-10 -43 2 0 23 12 46 26 61 39 126 109 136 146 8 31 7 33 -20 36 -15 2 -28 7
-28 13 0 20 -41 7 -77 -23 -23 -21 -34 -27 -30 -15 3 9 2 17 -3 17 -6 0 -10 5
-10 12 0 9 3 9 11 1 15 -15 77 30 90 66 17 44 -28 50 -64 7 -16 -20 -17 -20
-10 -1 12 36 72 63 108 49 13 -5 13 -8 0 -21 -25 -24 -30 -64 -11 -78 26 -19
85 5 89 37 2 7 9 28 16 47 11 26 12 38 3 52 -10 16 -7 20 23 35 19 9 32 20 29
25 -3 5 1 9 9 9 8 0 25 16 38 35 13 19 27 35 31 35 4 0 5 6 2 14 -3 8 4 20 15
28 12 8 18 18 13 22 -4 4 -2 6 5 4 6 -1 10 0 10 4 -1 4 12 22 30 40 39 41 50
79 29 100 -8 9 -13 18 -11 22 3 3 0 2 -7 -3 -7 -7 -18 -7 -29 0 -11 5 -34 9
-53 7 -32 -2 -33 -3 -31 -42 4 -49 -8 -82 -38 -107 -30 -25 -33 -24 -62 21
-36 57 -32 75 20 112 25 18 42 34 37 37 -10 8 -11 51 0 51 4 0 8 -4 8 -10 0
-5 5 -10 11 -10 5 0 8 4 5 9 -3 5 9 24 27 42 17 18 25 28 16 21 -13 -10 -18
-8 -27 13 -6 14 -18 25 -26 25 -16 0 -32 37 -21 48 3 4 24 -13 46 -36 23 -23
45 -40 50 -36 19 11 8 -12 -21 -45 -34 -38 -39 -67 -12 -74 31 -9 108 -7 94 2
-17 10 -17 8 2 56 9 22 17 49 19 60 1 11 7 26 11 34 7 11 5 13 -7 8 -10 -3
-17 -2 -17 3 0 5 9 12 20 15 36 11 22 33 -35 58 -22 9 -47 18 -55 19 -8 2 -18
8 -22 13 -25 33 16 43 71 17z m11 -126 c0 -2 -8 -10 -17 -17 -16 -13 -17 -12
-4 4 13 16 21 21 21 13z m-1810 -78 c8 -2 25 -12 38 -24 23 -20 23 -23 12 -85
-16 -91 -17 -94 -48 -109 -35 -17 -51 -21 -85 -21 -43 0 -114 51 -142 102 -15
28 -19 23 60 86 76 60 96 67 165 51z m359 -52 c6 -17 12 -50 15 -74 4 -41 3
-43 -34 -62 -60 -31 -227 -47 -257 -25 -20 15 -21 61 -4 131 10 43 16 50 34
49 12 -1 27 1 32 4 6 4 24 8 40 10 17 2 36 8 43 13 8 7 12 7 12 0 0 -6 14 -5
38 3 44 16 65 3 81 -49z m81 -196 c0 -5 -10 -11 -22 -11 -45 -3 -65 -6 -77
-13 -6 -4 -55 -9 -109 -10 -53 -2 -79 -2 -57 0 22 3 72 9 110 15 39 6 81 13
93 14 13 2 26 6 30 9 9 10 32 7 32 -4z m160 -32 c0 -5 -9 -4 -20 2 -11 6 -20
12 -20 14 0 2 9 2 20 -1 11 -3 20 -9 20 -15z m125 -3 c6 -2 -11 -4 -37 -4 -27
-1 -48 3 -48 7 0 7 62 5 85 -3z m913 -2 c-3 -16 15 -69 30 -86 8 -9 12 -20 9
-23 -10 -11 -37 17 -37 37 0 11 -7 19 -16 19 -9 0 -13 5 -8 13 3 6 -5 -1 -20
-17 -14 -16 -26 -34 -27 -40 0 -10 -5 -36 -11 -68 -2 -7 3 -12 10 -10 6 1 12
-3 12 -8 0 -6 -6 -10 -12 -9 -20 3 -49 -12 -42 -22 3 -5 -2 -9 -10 -9 -20 0
-20 14 -1 30 9 7 13 15 10 18 -3 3 1 12 9 21 18 19 31 71 20 72 -5 0 -17 2
-26 4 -9 2 -22 -3 -28 -10 -6 -8 -18 -11 -26 -8 -12 5 -12 8 3 18 28 19 83 27
83 12 0 -6 16 7 36 31 35 41 46 50 42 35z"/>
<path d="M3728 3393 c-26 -7 -31 -34 -9 -54 20 -19 49 -16 63 5 11 16 10 23
-8 40 -16 16 -17 17 -46 9z"/>
<path d="M3235 2278 c-11 -6 -32 -23 -47 -37 -26 -25 -26 -28 -12 -57 26 -53
71 -34 84 35 9 52 1 73 -25 59z"/>
<path d="M3607 2844 c-3 -3 -21 -7 -40 -10 -19 -2 -47 -11 -63 -19 -16 -8 -34
-15 -41 -15 -11 0 -23 -25 -29 -60 -5 -27 35 -53 140 -91 65 -24 83 -41 101
-92 12 -36 17 -125 7 -141 -2 -5 -6 -28 -8 -52 -1 -24 -6 -49 -11 -56 -4 -7
-9 -21 -10 -32 -2 -10 -12 -37 -22 -60 l-20 -41 6 35 c3 19 11 54 19 77 15 48
28 123 29 171 0 17 3 32 7 32 4 0 0 19 -8 43 -23 67 -65 86 -104 47 -18 -18
-19 -29 -14 -132 9 -213 20 -270 50 -282 8 -3 13 -10 10 -15 -3 -5 -8 -26 -12
-47 -3 -22 -14 -76 -24 -122 -20 -96 -22 -243 -2 -250 6 -2 9 -9 6 -14 -5 -7
-2 -8 7 -3 22 13 59 49 59 58 0 4 9 17 20 29 10 12 17 25 14 30 -3 4 2 8 10 8
9 0 15 3 14 8 -2 4 11 36 29 72 50 102 92 217 98 270 1 8 5 33 10 55 4 22 9
49 10 60 2 11 7 40 11 65 14 77 10 285 -5 304 -7 9 -11 16 -7 16 6 0 -15 42
-44 88 -25 38 -80 66 -136 69 -29 1 -54 0 -57 -3z"/>
<path d="M1260 2126 c-9 -6 -49 -67 -90 -136 -41 -69 -78 -127 -82 -130 -4 -3
-10 -22 -13 -42 -5 -33 -3 -36 27 -49 18 -8 36 -13 39 -12 3 1 34 4 68 7 131
11 280 63 350 122 34 28 74 101 65 116 -3 4 -36 8 -73 8 -68 0 -171 31 -171
52 0 5 -9 7 -20 3 -14 -5 -18 -2 -15 7 6 14 -28 51 -55 60 -9 3 -22 1 -30 -6z
m12 -114 l-23 -18 38 -39 c21 -22 37 -39 34 -38 -2 1 -19 -4 -37 -12 -19 -8
-34 -12 -34 -9 0 2 -19 -9 -42 -26 -22 -17 -44 -28 -46 -25 -9 9 56 52 88 59
3 1 14 7 25 13 19 12 19 13 -7 36 -34 29 -35 41 -6 61 31 22 38 20 10 -2z
m173 -92 c3 -5 -1 -10 -9 -10 -9 0 -16 5 -16 10 0 6 4 10 9 10 6 0 13 -4 16
-10z"/>
<path d="M1913 1967 c-10 -13 -42 -40 -70 -61 l-52 -37 21 -55 c21 -54 21 -55
2 -89 -10 -19 -21 -35 -25 -35 -9 0 -33 -91 -31 -115 7 -67 18 -76 77 -68 109
14 287 81 342 128 7 5 24 19 39 30 47 36 152 145 139 145 -4 0 2 12 13 28 22
30 46 106 31 97 -5 -4 -9 -2 -9 3 0 4 -28 9 -62 9 -68 2 -96 5 -203 28 -38 8
-98 14 -132 15 -53 0 -64 -3 -80 -23z m185 -52 c-3 -3 -9 2 -12 12 -6 14 -5
15 5 6 7 -7 10 -15 7 -18z m21 -63 c2 12 67 -54 74 -74 4 -10 4 -25 1 -33 -5
-13 -71 -60 -85 -60 -3 0 -13 -8 -22 -17 -9 -9 -42 -26 -72 -37 -64 -24 -65
-24 -65 -12 0 5 12 12 28 15 30 7 94 46 76 46 -7 0 -14 10 -18 23 -4 17 -13
22 -41 23 -19 0 -35 -3 -35 -8 0 -4 -5 -8 -11 -8 -6 0 -25 -9 -42 -21 l-32
-21 33 30 c27 24 32 34 27 55 -4 15 -16 29 -26 32 -18 6 -27 25 -12 25 12 0
53 -43 53 -57 0 -9 14 -13 40 -13 31 0 47 7 67 26 33 33 41 25 10 -12 -23 -28
-24 -46 -5 -71 7 -8 22 -3 56 20 74 49 81 72 31 108 -31 22 -32 22 -45 4 -8
-10 -17 -16 -20 -12 -4 4 -1 13 5 21 10 11 10 20 1 37 -8 14 -8 19 -1 15 6 -4
12 0 12 11 1 10 5 5 9 -12 4 -16 8 -27 9 -23z m-180 -246 c-11 -9 -63 -17 -54
-8 6 6 19 12 30 14 20 4 32 1 24 -6z m-69 -16 c0 -5 -4 -10 -10 -10 -5 0 -10
5 -10 10 0 6 5 10 10 10 6 0 10 -4 10 -10z"/>
</g>
</svg>
